{"asset":{"version":"2.0","generator":"babylon.js glTF exporter for 3dsmax 2020 v20201104.9"},"scene":0,"scenes":[{"nodes":[0,1]}],"nodes":[{"mesh":0,"name":"Layer:D3 101B 142200-145300 plan"},{"name":"Default light"}],"meshes":[{"primitives":[{"attributes":{"POSITION":1,"NORMAL":2,"TEXCOORD_0":3},"indices":0,"material":0}],"name":"Layer:D3 101B 142200-145300 plan"}],"accessors":[{"bufferView":0,"componentType":5125,"count":361800,"type":"SCALAR","name":"accessorIndices"},{"bufferView":1,"componentType":5126,"count":361800,"max":[371.9375,31.8503418,1509.25],"min":[-371.875,-31.8503723,-1509.25],"type":"VEC3","name":"accessorPositions"},{"bufferView":1,"byteOffset":4341600,"componentType":5126,"count":361800,"type":"VEC3","name":"accessorNormals"},{"bufferView":2,"componentType":5126,"count":361800,"type":"VEC2","name":"accessorUVs"}],"bufferViews":[{"buffer":0,"byteLength":1447200,"name":"bufferViewScalar"},{"buffer":0,"byteOffset":1447200,"byteLength":8683200,"byteStride":12,"name":"bufferViewFloatVec3"},{"buffer":0,"byteOffset":10130400,"byteLength":2894400,"byteStride":8,"name":"bufferViewFloatVec2"}],"buffers":[{"uri":"scene.bin","byteLength":13024800}],"materials":[{"pbrMetallicRoughness":{"baseColorFactor":[0.917647064,0.141176477,0.141176477,1.0],"metallicFactor":0.0,"roughnessFactor":0.450053632},"name":"Material #26"}]}