{"asset":{"version":"2.0","generator":"babylon.js glTF exporter for 3dsmax 2020 v20201104.9"},"scene":0,"scenes":[{"nodes":[0,1]}],"nodes":[{"mesh":0,"name":"Layer:!_ID25_Sever_Celek"},{"name":"Default light"}],"meshes":[{"primitives":[{"attributes":{"POSITION":1,"NORMAL":2,"TEXCOORD_0":3},"indices":0,"material":0}],"name":"Layer:!_ID25_Sever_Celek"}],"accessors":[{"bufferView":0,"componentType":5125,"count":156480,"type":"SCALAR","name":"accessorIndices"},{"bufferView":1,"componentType":5126,"count":156480,"max":[745.25,32.4512939,773.0],"min":[-745.1875,-32.4512329,-773.0],"type":"VEC3","name":"accessorPositions"},{"bufferView":1,"byteOffset":1877760,"componentType":5126,"count":156480,"type":"VEC3","name":"accessorNormals"},{"bufferView":2,"componentType":5126,"count":156480,"type":"VEC2","name":"accessorUVs"}],"bufferViews":[{"buffer":0,"byteLength":625920,"name":"bufferViewScalar"},{"buffer":0,"byteOffset":625920,"byteLength":3755520,"byteStride":12,"name":"bufferViewFloatVec3"},{"buffer":0,"byteOffset":4381440,"byteLength":1251840,"byteStride":8,"name":"bufferViewFloatVec2"}],"buffers":[{"uri":"scene.bin","byteLength":5633280}],"materials":[{"pbrMetallicRoughness":{"baseColorFactor":[0.588,0.588,0.588,1.0],"metallicFactor":0.0,"roughnessFactor":0.450053632},"name":"Material #25"}]}